<svg aria-hidden="true" focusable="false" data-prefix="fad" data-icon="code-icon" role="img" viewBox="0 0 512 512"
    xmlns="http://www.w3.org/2000/svg">
    <linearGradient id="SVGID_1_" gradientUnits="userSpaceOnUse" x1="256" x2="256" y1="496" y2="16">
        <stop offset="0" stop-color="currentColor" class="fa-primary"/>
        <stop offset="1" stop-color="currentColor" class="fa-secondary"/>
    </linearGradient>
    <g>
        <g>
            <path d="m391 376c66.72 0 121-53.832 121-120 0-56.848-40.789-105.299-96.495-116.755-18.77-72.019-84.231-123.245-159.505-123.245s-140.734 51.227-159.506 123.245c-55.705 11.456-96.494 59.907-96.494 116.755 0 66.168 54.28 120 121 120h120v32.58c-12.764 4.527-22.893 14.656-27.42 27.42h-107.58c-8.284 0-15 6.716-15 15s6.716 15 15 15h107.58c6.192 17.458 22.865 30 42.42 30s36.228-12.542 42.42-30h107.58c8.284 0 15-6.716 15-15s-6.716-15-15-15h-107.58c-4.527-12.764-14.656-22.893-27.42-27.42v-32.58zm-135 90c-8.271 0-15-6.729-15-15s6.729-15 15-15 15 6.729 15 15-6.729 15-15 15zm-135-120c-50.178 0-91-40.374-91-90 0-45.189 34.657-83.308 80.615-88.667 6.494-.757 11.75-5.634 12.99-12.054 12.232-63.321 67.912-109.279 132.395-109.279s120.163 45.958 132.394 109.278c1.239 6.42 6.495 11.297 12.99 12.054 45.959 5.36 80.616 43.479 80.616 88.668 0 49.626-40.822 90-91 90zm195-120c-8.284 0-15 6.716-15 15v15h-90v-15c0-8.284-6.716-15-15-15s-15 6.716-15 15v30c0 8.284 6.716 15 15 15h120c8.284 0 15-6.716 15-15v-30c0-8.284-6.716-15-15-15zm-70.609-4.396c2.877 2.876 6.786 4.396 10.609 4.396 3.807 0 7.73-1.517 10.609-4.396l29.998-29.998c5.858-5.858 5.858-15.355 0-21.213-5.857-5.858-15.355-5.858-21.213 0l-4.394 4.394v-53.787c0-8.284-6.716-15-15-15s-15 6.716-15 15v53.787l-4.394-4.394c-5.857-5.858-15.355-5.858-21.213 0s-5.858 15.355 0 21.213z" fill="url(#SVGID_1_)"/>
        </g>
    </g>
</svg>