<svg focusable="false" data-prefix="fad" data-icon="download-icon" role="img"
	xmlns="http://www.w3.org/2000/svg"
	xmlns:xlink="http://www.w3.org/1999/xlink" viewBox="0 0 512 512">
	<title>Go to download page</title>
	<linearGradient id="f" gradientUnits="userSpaceOnUse" x1="256" x2="256" y1="0" y2="512">
		<stop offset="0" stop-color="currentColor" class="fa-secondary"/>
		<stop offset="1" stop-color="currentColor" class="fa-primary"/>
	</linearGradient>
	<path d="M452,0H60C26.916,0,0,26.916,0,60v352c0,33.084,26.916,60,60,60h117v-40H60  c-11.028,0-20-8.972-20-20V160h432v252c0,11.028-8.972,20-20,20H351v40h101c33.084,0,60-26.916,60-60V60C512,26.916,485.084,0,452,0  z M40,120V60c0-11.028,8.972-20,20-20h392c11.028,0,20,8.972,20,20v60H40z M110,80c0,11.046-8.954,20-20,20s-20-8.954-20-20  s8.954-20,20-20S110,68.954,110,80z M180,80c0,11.046-8.954,20-20,20s-20-8.954-20-20s8.954-20,20-20S180,68.954,180,80z   M261.192,262c-13.807,0-25-11.193-25-25s11.193-25,25-25s25,11.193,25,25S275,262,261.192,262z M288.399,424.453l17.539,35.949  l-13.589,6.63c-6.774,3.306-14.054,4.935-21.293,4.935c-10.143,0-20.209-3.194-28.717-9.452  c-14.579-10.721-21.939-28.493-19.211-46.381c0.063-0.412,0.139-0.822,0.228-1.23l16.001-73.631  c0.441-4.139-1.934-6.568-3.426-7.666c-1.548-1.138-4.747-2.756-8.771-0.792l-16.396,7.998l-17.527-35.955l16.384-7.992  c16.267-7.937,35.43-6.205,50.01,4.518c14.579,10.722,21.939,28.493,19.211,46.381c-0.063,0.412-0.139,0.823-0.228,1.23  l-16.001,73.63c-0.441,4.14,1.933,6.569,3.426,7.667c1.549,1.14,4.746,2.758,8.771,0.792L288.399,424.453z" fill="url(#f)"/>
</svg>