<svg focusable="false" data-prefix="fad" data-icon="code-icon" role="img"
    xmlns="http://www.w3.org/2000/svg"
    xmlns:xlink="http://www.w3.org/1999/xlink" viewBox="0 0 512 512">
    <title>Go to settings</title>
    <linearGradient id="d" gradientUnits="userSpaceOnUse" x1="256" x2="256" y1="0" y2="512">
        <stop offset="0" stop-color="currentColor" class="fa-secondary"/>
        <stop offset="1" stop-color="currentColor" class="fa-primary"/>
    </linearGradient>
    <path d="m418 425.285156v-93.285156h-162c-41.90625 0-76-34.09375-76-76s34.09375-76 76-76h142v-81h51c6.386719 8.5 16.550781 14 28 14 19.328125 0 35-15.671875 35-35s-15.671875-35-35-35c-12.324219 0-23.152344 6.375-29.386719 16h-89.613281v81h-52v-140h-83.738281l-18.140625 68.195312c-15.398438 4.253907-30.1875 10.40625-44.191406 18.390626l-60.574219-34.878907-47.644531 47.648438 34.875 60.574219c-7.984376 14.003906-14.140626 28.792968-18.390626 44.191406l-68.195312 18.140625v67.476562l68.195312 18.140625c4.253907 15.398438 10.40625 30.1875 18.390626 44.191406l-34.875 60.574219 47.644531 47.644531 60.574219-34.875c14.003906 7.980469 28.792968 14.136719 44.191406 18.390626l18.140625 68.195312h83.738281v-140h72v53.285156c-9.0625 6.324219-15 16.824219-15 28.714844 0 19.328125 15.671875 35 35 35s35-15.671875 35-35c0-11.890625-5.9375-22.390625-15-28.714844zm-152 46.714844h-12.988281l-16.46875-61.914062-12.097657-2.503907c-18.90625-3.914062-36.816406-11.363281-53.230468-22.140625l-10.289063-6.753906-54.960937 31.640625-4.292969-4.292969 31.644531-54.960937-6.757812-10.289063c-10.777344-16.414062-18.222656-34.320312-22.136719-53.230468l-2.507813-12.097657-61.914062-16.46875v-5.976562l61.914062-16.46875 2.503907-12.101563c3.914062-18.90625 11.363281-36.8125 22.140625-53.230468l6.753906-10.289063-31.644531-54.960937 4.292969-4.292969 54.960937 31.644531 10.289063-6.753906c16.417968-10.777344 34.324218-18.226563 53.234374-22.140625l12.097657-2.503907 16.46875-61.914062h12.988281v100h-10c-63.964844 0-116 52.035156-116 116s52.035156 116 116 116h10zm246-216c0 19.328125-15.671875 35-35 35-11.890625 0-22.390625-5.9375-28.714844-15h-162.570312c-6.324219 9.0625-16.824219 15-28.714844 15-19.328125 0-35-15.671875-35-35s15.671875-35 35-35c11.890625 0 22.390625 5.9375 28.714844 15h162.570312c6.324219-9.0625 16.824219-15 28.714844-15 19.328125 0 35 15.671875 35 35zm0 0" fill="url(#d)"/>
</svg>